<svg width="24" height="23" viewBox="0 0 24 23" fill="none" xmlns="http://www.w3.org/2000/svg">
<g clip-path="url(#clip0_953_1888)">
<path d="M23.2035 7.16266H2.78601C2.78601 7.25955 2.78601 7.35236 2.78601 7.44517C2.78601 10.6733 2.78601 13.9014 2.78601 17.1295C2.78601 17.2019 2.78851 17.2736 2.78601 17.346C2.7752 17.6009 2.60641 17.7759 2.38109 17.7678C2.16324 17.7596 2.01192 17.5927 2.00111 17.346C1.99861 17.2899 2.00111 17.2337 2.00111 17.1775C2.00111 12.996 2.00111 8.81457 2.00111 4.6331C2.00111 3.33209 2.81096 2.53829 4.13964 2.53829C5.0318 2.53829 5.92313 2.53829 6.81529 2.53829H7.11129C7.07471 2.03596 7.13041 1.57352 7.55945 1.24786C7.79475 1.06956 8.06165 0.985706 8.36015 1.00199C9.06274 1.04107 9.40613 1.50188 9.47681 2.52038H16.5359C16.5359 2.39011 16.5318 2.25659 16.5359 2.12389C16.5567 1.49781 17.0747 1.0028 17.7091 1.00117C18.3444 0.999546 18.8657 1.49048 18.8898 2.11656C18.8948 2.24438 18.8898 2.3722 18.8898 2.5391C18.9838 2.5391 19.0694 2.5391 19.1559 2.5391C20.0888 2.5391 21.0217 2.53748 21.9546 2.5391C23.1527 2.54236 23.9967 3.36302 23.9975 4.53459C24 7.94669 23.9975 11.3596 24 14.7717C24 15.2464 23.832 15.642 23.4895 15.9766C21.9554 17.4771 20.4239 18.9792 18.894 20.4838C18.5398 20.8314 18.1232 21.0032 17.6193 21C16.4985 20.9934 15.3777 20.9983 14.2561 20.9975C13.9526 20.9975 13.7871 20.8681 13.7771 20.632C13.7663 20.3828 13.9376 20.2298 14.2428 20.2298C15.3395 20.2281 16.4353 20.2298 17.532 20.229C18.2155 20.229 18.499 19.9505 18.499 19.2797C18.499 18.7106 18.4957 18.1423 18.499 17.5732C18.5073 16.4489 19.3546 15.6217 20.5054 15.6144C21.1273 15.6103 21.7492 15.616 22.3712 15.6127C22.8759 15.6095 23.2101 15.2928 23.2109 14.8051C23.2134 12.2975 23.2126 9.79074 23.2118 7.28316C23.2118 7.2514 23.2076 7.22047 23.2035 7.16266ZM18.8906 3.30766C18.8906 3.47456 18.8948 3.60238 18.8906 3.73021C18.8665 4.35547 18.3444 4.84722 17.71 4.84478C17.0764 4.84315 16.5584 4.34733 16.5376 3.72206C16.5334 3.58936 16.5376 3.45584 16.5376 3.32476H9.47764C9.39699 4.35954 9.04943 4.81791 8.33687 4.84396C8.03837 4.85536 7.77314 4.7658 7.54116 4.58343C7.12626 4.25777 7.07554 3.80266 7.11046 3.30766C6.99322 3.30766 6.90509 3.30766 6.81695 3.30766C5.81919 3.3101 4.82061 3.29138 3.82368 3.32313C3.29653 3.34023 2.8359 3.78475 2.80597 4.30337C2.76689 4.98725 2.79599 5.67521 2.79599 6.37212H23.1852C23.1968 6.34688 23.2084 6.33304 23.2084 6.3192C23.2109 5.71836 23.2151 5.11833 23.2126 4.51749C23.2093 3.79859 22.7121 3.31173 21.9787 3.30848C21.1855 3.30522 20.3914 3.30848 19.5982 3.30848C19.3712 3.30848 19.1442 3.30848 18.8915 3.30848L18.8906 3.30766ZM21.8748 16.3935C21.3634 16.3935 20.8238 16.3544 20.2933 16.4049C19.787 16.4529 19.3995 16.7672 19.3371 17.2654C19.2681 17.8183 19.3213 18.3857 19.3213 18.8921C20.1545 18.0772 21.0167 17.2329 21.8739 16.3935H21.8748ZM8.67777 2.93804C8.67777 2.68972 8.68193 2.44141 8.67694 2.19309C8.67112 1.93338 8.50649 1.76566 8.27617 1.77136C8.05417 1.77706 7.89786 1.93908 7.89453 2.18739C7.88871 2.67588 7.88954 3.16437 7.89453 3.65286C7.89702 3.91176 8.06415 4.08029 8.29447 4.07459C8.51563 4.06889 8.67029 3.90606 8.67694 3.65856C8.68276 3.41839 8.6786 3.17821 8.6786 2.93804H8.67777ZM18.1057 2.92827C18.1057 2.68809 18.1091 2.44792 18.1049 2.20774C18.0999 1.9407 17.9494 1.77543 17.7183 1.77217C17.4871 1.76892 17.325 1.93582 17.3225 2.19798C17.3175 2.67832 17.3184 3.15949 17.3225 3.63983C17.325 3.90443 17.4788 4.07296 17.7083 4.07622C17.9386 4.07948 18.0999 3.91095 18.1049 3.65042C18.1099 3.41024 18.1057 3.17007 18.1057 2.9299V2.92827Z" fill="currentColor" stroke="currentColor" stroke-width="0.5" stroke-miterlimit="10"/>
<path d="M5.85934 17.6363C3.98389 16.3592 4.20013 14.0753 5.32873 12.908C6.51638 11.6784 8.559 11.6983 9.71421 12.9637C10.8195 14.1743 10.9559 16.4 9.14201 17.6272C9.24015 17.6654 9.32332 17.7028 9.40982 17.7319C9.99033 17.9265 10.5733 18.116 11.153 18.3139C12.2567 18.6897 12.9437 19.5993 12.9886 20.7566C13.0044 21.1565 13.0027 21.5581 12.9902 21.9589C12.9719 22.5758 12.5353 22.9973 11.9174 22.9981C8.97068 23.0006 6.02402 23.0006 3.07818 22.9981C2.4461 22.9981 2.00447 22.5633 2.0053 21.9381C2.0053 21.4234 1.97703 20.9013 2.05105 20.3958C2.19576 19.4106 2.77129 18.7263 3.70028 18.3704C4.30991 18.1368 4.93783 17.9514 5.55744 17.7436C5.64976 17.7128 5.74041 17.6787 5.86017 17.6363H5.85934ZM7.47531 22.2133C8.93076 22.2133 10.387 22.2133 11.8425 22.2133C12.1294 22.2133 12.2051 22.1376 12.2068 21.8508C12.2093 21.4991 12.2159 21.1474 12.2043 20.7965C12.1777 19.9734 11.7011 19.3316 10.9193 19.0655C10.1234 18.7945 9.32498 18.5317 8.52656 18.269C7.94688 18.0778 7.34973 18.0154 6.76422 18.1934C5.78865 18.4893 4.81474 18.8003 3.8608 19.1578C3.29192 19.3706 2.93014 19.8379 2.83949 20.4432C2.77378 20.8838 2.79624 21.3386 2.78875 21.7868C2.7821 22.1642 2.83616 22.2141 3.20626 22.2141C4.62928 22.2141 6.05229 22.2141 7.47531 22.2141V22.2133ZM5.23807 15.0356C5.22976 16.3102 6.19784 17.2863 7.4803 17.2954C8.75694 17.3046 9.74582 16.3376 9.75829 15.0656C9.77077 13.7993 8.79852 12.8224 7.51024 12.8074C6.23194 12.7933 5.24556 13.7594 5.23724 15.0356H5.23807Z" fill="currentColor" stroke="currentColor" stroke-width="0.5" stroke-miterlimit="10"/>
</g>
<defs>
<clipPath id="clip0_953_1888">
<rect width="24" height="23" fill="white"/>
</clipPath>
</defs>
</svg>
