<svg width="18" height="24" viewBox="0 0 18 24" fill="none" xmlns="http://www.w3.org/2000/svg">
<path d="M14.25 9C14.6642 9 15 9.33579 15 9.75C15 10.1642 14.6642 10.5 14.25 10.5H3.75C3.33579 10.5 3 10.1642 3 9.75C3 9.33579 3.33579 9 3.75 9H14.25ZM11.25 3C11.6642 3 12 3.33579 12 3.75C12 4.16421 11.6642 4.5 11.25 4.5H3.75C3.33579 4.5 3 4.16421 3 3.75C3 3.33579 3.33579 3 3.75 3H11.25ZM10 21C9.44772 21 9 20.5523 9 20V14.5C9 13.9477 9.44772 13.5 10 13.5H14C14.5523 13.5 15 13.9477 15 14.5V20C15 20.5523 14.5523 21 14 21H10ZM10.5 15V19.5H13.5V15H10.5ZM14.25 6C14.6642 6 15 6.33579 15 6.75C15 7.16421 14.6642 7.5 14.25 7.5H3.75C3.33579 7.5 3 7.16421 3 6.75C3 6.33579 3.33579 6 3.75 6H14.25ZM0 1C0 0.447716 0.447715 0 1 0H17C17.5523 0 18 0.447715 18 1V23C18 23.5523 17.5523 24 17 24H1C0.447716 24 0 23.5523 0 23V1ZM16.5 22.5V1.5H1.5V22.5H16.5ZM6.75 19.5C7.16421 19.5 7.5 19.8358 7.5 20.25C7.5 20.6642 7.16421 21 6.75 21H3.75C3.33579 21 3 20.6642 3 20.25C3 19.8358 3.33579 19.5 3.75 19.5H6.75ZM6.75 13.5C7.16421 13.5 7.5 13.8358 7.5 14.25C7.5 14.6642 7.16421 15 6.75 15H3.75C3.33579 15 3 14.6642 3 14.25C3 13.8358 3.33579 13.5 3.75 13.5H6.75ZM6.75 16.5C7.16421 16.5 7.5 16.8358 7.5 17.25C7.5 17.6642 7.16421 18 6.75 18H3.75C3.33579 18 3 17.6642 3 17.25C3 16.8358 3.33579 16.5 3.75 16.5H6.75Z" fill="currentColor"/>
</svg>
