<svg width="21" height="20" viewBox="0 0 21 20" fill="none" xmlns="http://www.w3.org/2000/svg">
<path fill-rule="evenodd" clip-rule="evenodd" d="M20.2395 4.66448C19.8425 4.19609 19.2655 3.92669 18.6585 3.92669H7.91377C7.49978 3.92669 7.16378 4.26956 7.16378 4.69203C7.16378 5.11451 7.49978 5.45738 7.91377 5.45738H18.6585C18.8935 5.45738 19.0395 5.588 19.1055 5.66556C19.1715 5.74413 19.2775 5.91047 19.2435 6.14721L18.2945 12.8404C18.2195 13.365 17.7715 13.7609 17.2515 13.7609H6.34081C5.78782 13.7609 5.33683 13.3374 5.29083 12.7761L4.32786 1.06939C4.29986 0.722434 4.04486 0.437725 3.70887 0.378538L1.62792 0.0101507C1.21493 -0.0571999 0.830944 0.217305 0.760946 0.634674C0.690948 1.05102 0.963941 1.44696 1.37193 1.51942L2.88189 1.78576L3.79587 12.9037C3.90787 14.265 5.00184 15.2916 6.34081 15.2916H17.2515C18.5125 15.2916 19.5985 14.3323 19.7785 13.0598L20.7284 6.36661C20.8154 5.7523 20.6364 5.13287 20.2395 4.66448ZM4.65795 18.455C4.65795 17.6029 5.33793 16.909 6.17291 16.909C7.00789 16.909 7.68687 17.6029 7.68687 18.455C7.68687 19.3071 7.00789 20 6.17291 20C5.33793 20 4.65795 19.3071 4.65795 18.455ZM15.9107 18.455C15.9107 17.6029 16.5896 16.909 17.4246 16.909C18.2596 16.909 18.9396 17.6029 18.9396 18.455C18.9396 19.3071 18.2596 20 17.4246 20C16.5896 20 15.9107 19.3071 15.9107 18.455ZM16.3988 8.46428C16.3988 8.88675 16.0628 9.22963 15.6488 9.22963H12.8758C12.4609 9.22963 12.1259 8.88675 12.1259 8.46428C12.1259 8.04181 12.4609 7.69893 12.8758 7.69893H15.6488C16.0628 7.69893 16.3988 8.04181 16.3988 8.46428Z" fill="#121212"/>
</svg>
