<svg width="24" height="24" viewBox="0 0 24 24" fill="none" xmlns="http://www.w3.org/2000/svg">
<path d="M5.80578 14.6763V16.9701C5.80578 19.1328 5.80578 20.2141 6.47763 20.886C7.14948 21.5578 8.23081 21.5578 10.3935 21.5578H13.4519C15.6146 21.5578 16.6959 21.5578 17.3678 20.886C18.0396 20.2141 18.0396 19.1328 18.0396 16.9701V14.6763" stroke="currentColor" stroke-width="1.5" stroke-linecap="round"/>
<path d="M5.80579 14.6127C3.63603 14.2487 1.98271 12.3617 1.98271 10.0885C1.98271 7.55477 4.03669 5.50079 6.5704 5.50079C6.88522 5.50079 7.19263 5.5325 7.48962 5.59291" stroke="currentColor" stroke-width="1.5" stroke-linecap="round"/>
<path d="M18.1942 14.6127C20.364 14.2487 22.0173 12.3617 22.0173 10.0885C22.0173 7.55477 19.9633 5.50079 17.4296 5.50079C17.1148 5.50079 16.8074 5.5325 16.5104 5.59291" stroke="currentColor" stroke-width="1.5" stroke-linecap="round"/>
<path d="M7.47955 8.17693C7.3852 7.81035 7.33502 7.42604 7.33502 7.03001C7.33502 4.4963 9.389 2.44232 11.9227 2.44232C14.4564 2.44232 16.5104 4.4963 16.5104 7.03001C16.5104 7.42604 16.4602 7.81035 16.3659 8.17693" stroke="currentColor" stroke-width="1.5" stroke-linecap="round"/>
<path d="M5.80578 18.1171H18.0396" stroke="currentColor" stroke-width="1.5"/>
<path d="M11.8927 10.7329V13.1355" stroke="currentColor" stroke-width="1.5" stroke-linecap="round"/>
<path d="M7.64386 10.9343C7.45179 11.3633 7.8039 12.9989 8.22004 13.267" stroke="currentColor" stroke-width="1.5" stroke-linecap="round"/>
<path d="M16.4566 10.9343C16.6486 11.3633 16.2965 12.9989 15.8804 13.267" stroke="currentColor" stroke-width="1.5" stroke-linecap="round"/>
</svg>
