<svg width="24" height="24" viewBox="0 0 24 24" fill="none" xmlns="http://www.w3.org/2000/svg">
<path d="M7.5 12H13.5M7.5 8H10.5M8.5 20C9.55 20.87 10.815 21.424 12.264 21.519C13.405 21.594 14.597 21.594 15.737 21.519C16.1444 21.4908 16.545 21.4004 16.925 21.251C17.335 21.084 17.539 21.001 17.644 21.014C17.748 21.026 17.899 21.136 18.201 21.356C18.734 21.744 19.405 22.022 20.401 21.999C20.904 21.987 21.156 21.98 21.268 21.791C21.381 21.601 21.241 21.339 20.96 20.814C20.57 20.086 20.324 19.253 20.698 18.585C21.341 17.631 21.888 16.502 21.968 15.282C22.011 14.627 22.011 13.948 21.968 13.292C21.9159 12.5004 21.7235 11.7243 21.4 11" stroke="currentColor" stroke-width="1.5" stroke-linecap="round" stroke-linejoin="round"/>
<path d="M12.345 17.487C15.901 17.253 18.733 14.407 18.965 10.834C19.011 10.135 19.011 9.411 18.965 8.712C18.733 5.14 15.901 2.294 12.345 2.06C11.132 1.98 9.865 1.98 8.655 2.06C5.099 2.294 2.267 5.14 2.035 8.712C1.989 9.412 1.989 10.135 2.035 10.834C2.119 12.136 2.7 13.34 3.384 14.358C3.781 15.07 3.519 15.958 3.105 16.735C2.807 17.295 2.658 17.575 2.778 17.777C2.898 17.979 3.165 17.986 3.7 17.998C4.757 18.024 5.47 17.727 6.036 17.313C6.357 17.079 6.518 16.962 6.629 16.948C6.739 16.935 6.957 17.023 7.392 17.201C7.784 17.361 8.238 17.459 8.655 17.487C9.865 17.567 11.132 17.567 12.345 17.487Z" stroke="currentColor" stroke-width="1.5" stroke-linecap="round" stroke-linejoin="round"/>
</svg>
