<svg width="24" height="24" viewBox="0 0 24 24" fill="none" xmlns="http://www.w3.org/2000/svg">
<path d="M14.3383 8.80374L7.21329 21.1446" stroke="#282E2C" stroke-width="1.5" stroke-linecap="round" stroke-linejoin="round"/>
<path d="M12.5665 18.8943C11.2245 19.2538 9.08118 18.181 9.08118 18.181C9.08118 18.181 10.4287 15.7832 11.9305 15.4959C13.2566 15.2423 15.2283 16.5339 15.2283 16.5339C15.2283 16.5339 13.9085 18.5347 12.5665 18.8943Z" stroke="#282E2C" stroke-width="1.5" stroke-linecap="round" stroke-linejoin="round"/>
<path d="M15.5679 13.6957C14.2259 14.0553 12.0826 12.9825 12.0826 12.9825C12.0826 12.9825 13.4301 10.5846 14.9319 10.2974C16.258 10.0437 18.2297 11.3353 18.2297 11.3353C18.2297 11.3353 16.9099 13.3361 15.5679 13.6957Z" stroke="#282E2C" stroke-width="1.5" stroke-linecap="round" stroke-linejoin="round"/>
<path d="M17.3072 6.84354C16.6125 8.04672 14.3384 8.80372 14.3384 8.80372C14.3384 8.80372 13.5957 6.15534 14.4545 4.89033C15.2128 3.77324 17.5203 3.29237 17.5203 3.29237C17.5203 3.29237 18.0018 5.64036 17.3072 6.84354Z" stroke="#282E2C" stroke-width="1.5" stroke-linecap="round" stroke-linejoin="round"/>
<path d="M6.39611 15.3318C6.75569 16.6737 8.75645 17.9936 8.75645 17.9936C8.75645 17.9936 10.1592 15.6276 9.65717 14.1835C9.2138 12.9082 7.10933 11.8464 7.10933 11.8464C7.10933 11.8464 6.03653 13.9898 6.39611 15.3318Z" stroke="#282E2C" stroke-width="1.5" stroke-linecap="round" stroke-linejoin="round"/>
<path d="M9.39751 10.1332C9.7571 11.4752 11.7579 12.795 11.7579 12.795C11.7579 12.795 13.1606 10.429 12.6586 8.98487C12.2152 7.70957 10.1107 6.64785 10.1107 6.64785C10.1107 6.64785 9.03793 8.79121 9.39751 10.1332Z" stroke="#282E2C" stroke-width="1.5" stroke-linecap="round" stroke-linejoin="round"/>
</svg>
