<svg width="46" height="52" viewBox="0 0 46 52" fill="none" xmlns="http://www.w3.org/2000/svg">
<path d="M4.38922 10.049V29.3774C4.38922 39.8996 12.7222 48.4276 23 48.4276C33.2778 48.4276 41.6108 39.8996 41.6108 29.3774V10.0594L22.8882 3.7596L4.38922 10.049ZM22.883 0L45.1 7.4724V29.3774C45.1 41.8704 35.2044 52 23 52C10.7956 52 0.900024 41.8704 0.900024 29.3774V7.4724L22.883 0ZM34.3724 16.861C34.2027 16.7051 34.0033 16.585 33.7862 16.5078C33.5691 16.4306 33.3386 16.398 33.1086 16.4118C32.8785 16.4257 32.6536 16.4857 32.4473 16.5883C32.241 16.691 32.0574 16.8341 31.9076 17.0092L20.686 29.9286L13.4372 21.9076C13.284 21.7359 13.0977 21.5968 12.8896 21.4985C12.6815 21.4003 12.4557 21.3449 12.2258 21.3357C11.9958 21.3265 11.7663 21.3636 11.551 21.4449C11.3357 21.5262 11.1389 21.6499 10.9724 21.8088C10.6327 22.1353 10.4329 22.5808 10.4149 23.0517C10.397 23.5225 10.5623 23.982 10.8762 24.3334L19.4302 33.7974C19.5931 33.9806 19.7934 34.1267 20.0176 34.226C20.2417 34.3252 20.4845 34.3753 20.7296 34.3728C20.9748 34.3704 21.2165 34.3154 21.4386 34.2117C21.6607 34.1079 21.858 33.9578 22.0172 33.7714L34.5154 19.383C34.8226 19.0258 34.9794 18.5635 34.9527 18.0932C34.926 17.6228 34.718 17.1811 34.3724 16.861Z" fill="currentColor"/>
</svg>
