<svg width="32" height="32" viewBox="0 0 32 32" fill="none" xmlns="http://www.w3.org/2000/svg">
<path d="M10.375 32C10.7201 32 11 31.7201 11 31.375V28.5C11 28.1549 10.7201 27.875 10.375 27.875C10.0299 27.875 9.75 28.1549 9.75 28.5V31.375C9.75 31.7201 10.0299 32 10.375 32Z" fill="currentColor"/>
<path d="M24.75 12.5C25.095 12.5 25.375 12.22 25.375 11.875C25.375 11.53 25.095 11.25 24.75 11.25C24.405 11.25 24.125 11.53 24.125 11.875C24.125 12.22 24.405 12.5 24.75 12.5Z" fill="currentColor"/>
<path d="M1.625 13.75C1.625 15.1285 2.7465 16.25 4.125 16.25H8.79075C8.06844 18.1002 7.77606 20.2779 7.83244 22.2165C7.84319 22.5864 7.85737 22.8004 7.87656 22.9351C7.90887 24.2855 9.01775 25.375 10.375 25.375C11.7535 25.375 12.875 24.2535 12.875 22.875V22.25C12.875 18.2971 17.9509 16.0762 21.7815 15.1238C22.0711 15.7859 22.7323 16.25 23.5 16.25H29.75C30.0951 16.25 30.375 15.9701 30.375 15.625L30.375 0.625C30.375 0.279875 30.0951 0 29.75 0H23.5C22.7374 0 22.0801 0.457937 21.7874 1.11306C21.4703 1.03169 21.1758 0.954811 20.904 0.883812C18.7218 0.313875 17.5198 0 14.5963 0H7.875C6.4965 0 5.375 1.1215 5.375 2.5C5.375 3.014 5.53106 3.49212 5.79812 3.88988C4.83262 4.22756 4.125 5.15006 4.125 6.25C4.125 6.76213 4.27725 7.24181 4.5435 7.64137C3.58225 7.97962 2.875 8.9 2.875 10C2.875 10.514 3.03106 10.9921 3.29812 11.3899C2.33262 11.7276 1.625 12.6501 1.625 13.75ZM22.875 1.875C22.875 1.53037 23.1554 1.25 23.5 1.25H29.125L29.125 15L23.5 15C23.1554 15 22.875 14.7196 22.875 14.375L22.875 1.875ZM4.125 12.5C5.46556 12.5 5.78513 12.5 7.25 12.5C7.59513 12.5 7.875 12.2201 7.875 11.875C7.875 11.5299 7.59513 11.25 7.25 11.25H5.375C4.68575 11.25 4.125 10.6892 4.125 10C4.125 9.30963 4.68463 8.75 5.375 8.75L8.5 8.75C8.84513 8.75 9.125 8.47013 9.125 8.125C9.125 7.77987 8.84513 7.5 8.5 7.5L6.625 7.5C5.94394 7.5 5.375 6.95594 5.375 6.25C5.375 5.55963 5.93463 5 6.625 5C7.96556 5 8.28513 5 9.75 5C10.0951 5 10.375 4.72013 10.375 4.375C10.375 4.02987 10.0951 3.75 9.75 3.75H7.875C7.18575 3.75 6.625 3.18925 6.625 2.5C6.625 1.81075 7.18575 1.25 7.875 1.25H14.5963C17.3592 1.25 18.4383 1.53181 20.5881 2.09325C20.9031 2.1755 21.2485 2.26569 21.625 2.36169L21.625 13.8734C17.102 14.9508 11.625 17.5806 11.625 22.25V22.875C11.625 23.5642 11.0643 24.125 10.375 24.125C9.687 24.125 9.12631 23.5651 9.125 22.8769V22.875C9.125 22.6034 8.786 19.2698 10.1454 16.25L12.25 16.25C12.5951 16.25 12.875 15.9701 12.875 15.625C12.875 15.2799 12.5951 15 12.25 15C11.8136 15 4.83738 15 4.125 15C3.43575 15 2.875 14.4392 2.875 13.75C2.875 13.0596 3.43463 12.5 4.125 12.5Z" fill="currentColor"/>
<path d="M24.75 10C25.0951 10 25.375 9.72012 25.375 9.375V4.375C25.375 4.02987 25.0951 3.75 24.75 3.75C24.4049 3.75 24.125 4.02987 24.125 4.375V9.375C24.125 9.72012 24.4049 10 24.75 10Z" fill="currentColor"/>
<path d="M15.375 24.125H17.875C18.2201 24.125 18.5 23.8451 18.5 23.5C18.5 23.1549 18.2201 22.875 17.875 22.875H15.375C15.0299 22.875 14.75 23.1549 14.75 23.5C14.75 23.8451 15.0299 24.125 15.375 24.125Z" fill="currentColor"/>
<path d="M2.875 24.125H5.375C5.72012 24.125 6 23.8451 6 23.5C6 23.1549 5.72012 22.875 5.375 22.875H2.875C2.52988 22.875 2.25 23.1549 2.25 23.5C2.25 23.8451 2.52988 24.125 2.875 24.125Z" fill="currentColor"/>
<path d="M4.63018 29.2448C4.8743 29.4888 5.26992 29.4888 5.51411 29.2448L7.28155 27.4774C7.52562 27.2333 7.52562 26.8375 7.28155 26.5934C7.03736 26.3494 6.6418 26.3494 6.39761 26.5934L4.63018 28.3609C4.38611 28.6049 4.38611 29.0007 4.63018 29.2448Z" fill="currentColor"/>
<path d="M13.4688 27.4774L15.2362 29.2448C15.4804 29.4888 15.876 29.4888 16.1202 29.2448C16.3642 29.0007 16.3642 28.605 16.1202 28.3609L14.3527 26.5934C14.1085 26.3494 13.7129 26.3494 13.4688 26.5934C13.2247 26.8375 13.2247 27.2332 13.4688 27.4774Z" fill="currentColor"/>
</svg>
