<svg width="32" height="32" viewBox="0 0 32 32" fill="none" xmlns="http://www.w3.org/2000/svg">
<path d="M21.625 0C21.2799 0 21 0.279875 21 0.625V3.5C21 3.84512 21.2799 4.125 21.625 4.125C21.9701 4.125 22.25 3.84512 22.25 3.5V0.625C22.25 0.279875 21.9701 0 21.625 0Z" fill="currentColor"/>
<path d="M7.25 19.5C6.905 19.5 6.625 19.78 6.625 20.125C6.625 20.47 6.905 20.75 7.25 20.75C7.595 20.75 7.875 20.47 7.875 20.125C7.875 19.78 7.595 19.5 7.25 19.5Z" fill="currentColor"/>
<path d="M30.375 18.25C30.375 16.8715 29.2535 15.75 27.875 15.75H23.2092C23.9316 13.8998 24.2239 11.7221 24.1676 9.7835C24.1568 9.41356 24.1426 9.19963 24.1234 9.06494C24.0911 7.7145 22.9823 6.625 21.625 6.625C20.2465 6.625 19.125 7.7465 19.125 9.125V9.75C19.125 13.7029 14.0491 15.9238 10.2185 16.8762C9.92887 16.2141 9.26775 15.75 8.5 15.75H2.25C1.90488 15.75 1.625 16.0299 1.625 16.375V31.375C1.625 31.7201 1.90488 32 2.25 32H8.5C9.26262 32 9.91994 31.5421 10.2126 30.8869C10.5297 30.9683 10.8242 31.0452 11.096 31.1162C13.2782 31.6861 14.4802 32 17.4037 32H24.125C25.5035 32 26.625 30.8785 26.625 29.5C26.625 28.986 26.4689 28.5079 26.2019 28.1101C27.1674 27.7724 27.875 26.8499 27.875 25.75C27.875 25.2379 27.7227 24.7582 27.4565 24.3586C28.4177 24.0204 29.125 23.1 29.125 22C29.125 21.486 28.9689 21.0079 28.7019 20.6101C29.6674 20.2724 30.375 19.3499 30.375 18.25ZM9.125 30.125C9.125 30.4696 8.84462 30.75 8.5 30.75H2.875V17H8.5C8.84462 17 9.125 17.2804 9.125 17.625V30.125ZM27.875 19.5C26.5344 19.5 26.2149 19.5 24.75 19.5C24.4049 19.5 24.125 19.7799 24.125 20.125C24.125 20.4701 24.4049 20.75 24.75 20.75H26.625C27.3143 20.75 27.875 21.3108 27.875 22C27.875 22.6904 27.3154 23.25 26.625 23.25H23.5C23.1549 23.25 22.875 23.5299 22.875 23.875C22.875 24.2201 23.1549 24.5 23.5 24.5H25.375C26.0561 24.5 26.625 25.0441 26.625 25.75C26.625 26.4404 26.0654 27 25.375 27C24.0344 27 23.7149 27 22.25 27C21.9049 27 21.625 27.2799 21.625 27.625C21.625 27.9701 21.9049 28.25 22.25 28.25H24.125C24.8143 28.25 25.375 28.8107 25.375 29.5C25.375 30.1893 24.8143 30.75 24.125 30.75H17.4037C14.6408 30.75 13.5617 30.4682 11.4119 29.9067C11.0969 29.8245 10.7515 29.7343 10.375 29.6383V18.1266C14.898 17.0492 20.375 14.4194 20.375 9.75V9.125C20.375 8.43575 20.9357 7.875 21.625 7.875C22.313 7.875 22.8737 8.43487 22.875 9.12306V9.125C22.875 9.39663 23.214 12.7302 21.8546 15.75H19.75C19.4049 15.75 19.125 16.0299 19.125 16.375C19.125 16.7201 19.4049 17 19.75 17C20.1864 17 27.1626 17 27.875 17C28.5643 17 29.125 17.5608 29.125 18.25C29.125 18.9404 28.5654 19.5 27.875 19.5Z" fill="currentColor"/>
<path d="M7.25 22C6.90488 22 6.625 22.2799 6.625 22.625V27.625C6.625 27.9701 6.90488 28.25 7.25 28.25C7.59512 28.25 7.875 27.9701 7.875 27.625V22.625C7.875 22.2799 7.59512 22 7.25 22Z" fill="currentColor"/>
<path d="M16.625 7.875H14.125C13.7799 7.875 13.5 8.15488 13.5 8.5C13.5 8.84512 13.7799 9.125 14.125 9.125H16.625C16.9701 9.125 17.25 8.84512 17.25 8.5C17.25 8.15488 16.9701 7.875 16.625 7.875Z" fill="currentColor"/>
<path d="M29.125 7.875H26.625C26.2799 7.875 26 8.15488 26 8.5C26 8.84512 26.2799 9.125 26.625 9.125H29.125C29.4701 9.125 29.75 8.84512 29.75 8.5C29.75 8.15488 29.4701 7.875 29.125 7.875Z" fill="currentColor"/>
<path d="M27.3698 2.7552C27.1257 2.5112 26.7301 2.5112 26.4859 2.7552L24.7184 4.52264C24.4744 4.76671 24.4744 5.16246 24.7184 5.40658C24.9626 5.65064 25.3582 5.65058 25.6024 5.40658L27.3698 3.63914C27.6139 3.39508 27.6139 2.99933 27.3698 2.7552Z" fill="currentColor"/>
<path d="M18.5312 4.52264L16.7638 2.7552C16.5196 2.5112 16.124 2.5112 15.8798 2.7552C15.6358 2.99927 15.6358 3.39502 15.8798 3.63914L17.6473 5.40658C17.8915 5.65064 18.2871 5.65058 18.5312 5.40658C18.7753 5.16252 18.7753 4.76677 18.5312 4.52264Z" fill="currentColor"/>
</svg>
