<svg width="14" height="15" viewBox="0 0 14 15" fill="none" xmlns="http://www.w3.org/2000/svg">
<path d="M1.66922 13.6559C1.64328 13.6294 1.61734 13.6029 1.61734 13.5765C1.51369 13.4442 1.41005 13.3119 1.25453 13.206C1.22858 13.1795 1.22858 13.1795 1.20264 13.153C1.1767 13.1265 1.15075 13.1265 1.12494 13.1C0.969408 12.9942 0.788078 12.9147 0.632541 12.8354C0.606598 12.8354 0.606598 12.8354 0.580654 12.8089C0.554711 12.8089 0.528768 12.8089 0.528768 12.7824L0.036499 14.5029V14.5823C0.036499 14.6616 0.0624419 14.7146 0.1142 14.7676C0.140142 14.7941 0.166086 14.8206 0.1919 14.8206H0.243787H0.295673H0.373373L2.0061 14.3177L1.95422 14.2119C1.90258 14.0264 1.79881 13.8412 1.66922 13.6559Z" fill="currentColor"/>
<path d="M13.5394 2.09148L12.2973 0.834715C12.1778 0.713867 12.0345 0.641406 11.8911 0.593018C11.7477 0.54463 11.5806 0.544631 11.4373 0.568825C11.2223 0.593018 11.0311 0.689673 10.8879 0.85891L9.88452 1.8741L12.5122 4.62941L13.5394 3.59017C13.5633 3.56598 13.5633 3.54179 13.5872 3.54179C13.9216 3.08247 13.8977 2.47823 13.5394 2.09149L13.5394 2.09148Z" fill="currentColor"/>
<path d="M3.41024 11.7836L3.03018 11.3913L10.1977 3.99247L8.89459 2.59117L1.50987 10.2142C1.48269 10.2423 1.45551 10.2983 1.45551 10.3263L1.37412 10.5505L1.02124 11.7836H1.07559C1.99865 12.0638 2.70458 12.8206 2.97607 13.7454V13.8015L4.41494 13.353H4.44212C4.44212 13.353 4.46929 13.353 4.46929 13.325C4.49647 13.325 4.49647 13.2969 4.52365 13.2969L11.8541 5.72992L10.551 4.32863L3.41024 11.7836Z" fill="currentColor"/>
</svg>
