<svg width="24" height="24" viewBox="0 0 24 24" fill="none" xmlns="http://www.w3.org/2000/svg">
<path d="M20.1459 9.57813C19.0717 11.0391 18.4272 12.5859 18.2553 14.1758C17.9545 16.668 16.5795 18.8164 14.4311 20.1055C13.185 20.8359 11.767 21.2227 10.349 21.2227C7.42716 21.2227 4.72013 19.6328 3.30216 17.0547C1.28263 13.4023 2.52872 8.63282 6.05216 6.44141C6.9545 5.88282 7.89981 5.4961 8.93106 5.32422C10.2631 5.10938 11.5951 4.50782 12.9701 3.51954C13.099 3.4336 13.2279 3.34766 13.3568 3.26172C14.3881 2.70313 15.5483 2.35938 16.7084 2.35938C18.4272 2.35938 19.9311 3.13282 20.6615 4.42188C21.5639 5.92579 21.349 7.90235 20.1459 9.57813Z" stroke="#282E2C" stroke-width="1.5"/>
<path d="M11.1655 10.3945C10.9506 10.3516 10.6928 10.4805 10.6498 10.6953C10.6069 10.9102 10.7358 11.168 10.9506 11.2109C11.9819 11.4688 12.6264 12.543 12.3686 13.5742C12.3256 13.7891 12.4545 14.0469 12.6694 14.0898C12.7123 14.0898 12.7553 14.0898 12.7553 14.0898C12.9272 14.0898 13.142 13.9609 13.185 13.7461C13.6147 12.3281 12.6694 10.7813 11.1655 10.3945Z" fill="#282E2C"/>
<circle cx="10.4994" cy="13.123" r="4.7837" stroke="#282E2C" stroke-width="1.5"/>
</svg>
