<svg width="28" height="28" viewBox="0 0 28 28" fill="none" xmlns="http://www.w3.org/2000/svg">
<path fill-rule="evenodd" clip-rule="evenodd" d="M10.1802 10.1243L0.666748 19.5817L4.56686 23.4575L8.46725 27.3333L17.7234 18.1642C22.8146 13.121 27.1124 8.75596 27.2744 8.46377C27.528 8.00671 27.0627 7.42854 23.9214 4.29971C21.9149 2.30152 20.1432 0.666668 19.9838 0.666668C19.8244 0.666668 15.413 4.92248 10.1802 10.1243ZM17.2163 16.9652L8.34027 25.7894L5.28359 22.761L2.22691 19.7327L3.07062 18.8943L3.91433 18.0561L4.63646 18.7302C5.18927 19.2463 5.43699 19.3268 5.69209 19.0732C5.94719 18.8197 5.86623 18.5736 5.34751 18.0247L4.66941 17.3074L5.43472 16.5469L6.20002 15.7863L7.77439 17.3308C9.05558 18.588 9.39789 18.7969 9.61266 18.4522C9.81208 18.1329 9.51408 17.6634 8.40334 16.5449L6.92982 15.0611L7.69513 14.3005L8.46043 13.54L9.11183 14.1481C9.56323 14.5693 9.89048 14.678 10.1774 14.5018C10.5234 14.2892 10.478 14.1269 9.90327 13.5188L9.21466 12.7904L9.97997 12.0299L10.7453 11.2694L12.3196 12.8139C13.6008 14.071 13.9431 14.2799 14.1579 13.9352C14.3573 13.6159 14.0593 13.1464 12.9486 12.0279L11.4751 10.5441L12.2404 9.78357L13.0057 9.02303L13.6571 9.63112C14.1085 10.0523 14.4357 10.161 14.7227 9.98485C15.0687 9.77228 15.0232 9.60995 14.4485 9.00185L13.7599 8.27349L14.5252 7.51295L15.2905 6.75241L16.8649 8.29693C18.1461 9.55405 18.4884 9.76296 18.7032 9.41826C18.9026 9.09897 18.6046 8.62949 17.4938 7.51098L16.0203 6.02716L16.7856 5.26662L17.5509 4.50608L18.2143 5.12518C18.7256 5.60257 18.9543 5.66778 19.2142 5.40947C19.4741 5.15115 19.4099 4.92531 18.9335 4.42138L18.3162 3.7684L19.1372 2.91667L19.9585 2.06466L23.0251 5.10316L26.092 8.14137L17.2163 16.9652Z" fill="#CF003E"/>
</svg>
