<svg id="svg" xmlns="http://www.w3.org/2000/svg" xmlns:xlink="http://www.w3.org/1999/xlink" width="400" height="400" viewBox="0, 0, 400,400" version="1.1"><g id="svgg"><path id="path0" d="M135.213 2.058 C 133.685 4.001,133.594 5.096,133.594 21.546 C 133.594 43.130,137.316 38.831,100.781 59.436 C 60.467 82.172,49.326 90.853,36.779 109.298 C 23.513 128.802,21.201 139.063,30.071 139.063 C 34.393 139.063,35.008 138.446,39.570 129.526 C 52.489 104.270,62.378 95.689,108.594 69.629 C 139.793 52.036,143.254 49.531,145.162 43.165 C 146.934 37.247,146.422 3.454,144.531 1.562 C 142.142 -0.827,137.279 -0.568,135.213 2.058 M255.469 1.562 C 253.994 3.038,253.906 4.164,253.911 21.680 C 253.916 42.857,254.286 44.957,258.859 49.713 C 263.223 54.253,294.332 71.875,297.981 71.875 C 302.519 71.875,305.378 66.709,303.147 62.542 C 302.730 61.762,295.259 57.133,286.546 52.257 C 277.832 47.380,269.736 42.443,268.555 41.286 L 266.406 39.183 266.406 21.650 C 266.406 5.095,266.316 4.002,264.787 2.058 C 262.721 -0.568,257.858 -0.827,255.469 1.562 M182.944 48.128 C 168.476 55.338,170.224 76.960,185.624 81.272 C 195.966 84.167,206.336 78.156,208.514 68.002 C 211.719 53.057,196.613 41.316,182.944 48.128 M193.719 59.359 C 197.501 61.383,196.903 67.625,192.788 69.072 C 188.116 70.715,184.053 66.118,186.314 61.745 C 187.910 58.659,190.720 57.754,193.719 59.359 M315.199 73.793 C 313.329 75.662,312.792 78.284,313.761 80.809 C 314.024 81.496,318.155 84.669,322.940 87.859 C 361.835 113.789,377.140 150.738,370.687 203.125 L 368.714 219.141 368.927 278.779 L 369.141 338.417 371.333 340.302 C 374.021 342.614,376.484 342.698,379.192 340.568 L 381.250 338.949 381.250 279.618 C 381.250 220.397,381.254 220.258,383.281 204.089 C 389.876 151.501,374.696 111.043,337.683 82.563 C 324.607 72.501,318.768 70.223,315.199 73.793 M158.388 106.445 C 155.865 108.361,155.469 111.693,155.455 131.106 C 155.438 155.340,154.678 159.450,147.179 175.864 C 143.224 184.520,143.040 186.080,145.668 188.707 C 150.564 193.604,154.380 190.972,159.735 179.006 C 166.835 163.145,167.384 159.998,167.769 132.937 L 168.107 109.233 166.339 107.351 C 164.378 105.263,160.522 104.824,158.388 106.445 M233.741 107.062 C 231.492 109.157,231.118 147.082,233.241 157.650 C 236.719 174.957,244.478 190.625,249.572 190.625 C 256.321 190.625,257.516 186.107,253.235 176.765 C 245.197 159.223,244.531 155.718,244.531 130.943 C 244.531 111.620,244.152 108.495,241.571 106.534 C 239.549 104.998,235.676 105.259,233.741 107.062 M112.109 136.452 C 94.819 145.551,101.908 171.198,121.201 169.344 C 134.780 168.040,141.370 151.644,132.594 140.998 C 128.136 135.589,118.016 133.344,112.109 136.452 M123.158 149.670 C 125.993 153.996,121.183 158.805,116.857 155.971 C 113.072 153.491,115.020 147.656,119.634 147.656 C 121.142 147.656,122.256 148.293,123.158 149.670 M19.177 152.539 C 14.657 156.505,13.619 178.993,16.786 204.362 C 18.701 219.702,18.729 220.765,18.739 279.435 L 18.750 338.949 20.808 340.568 C 23.516 342.698,25.979 342.614,28.667 340.302 L 30.859 338.417 31.069 278.852 C 31.279 219.304,31.278 219.283,29.311 203.406 C 27.148 185.946,26.878 173.546,28.438 163.281 C 30.082 152.460,25.425 147.058,19.177 152.539 M87.074 169.886 L 85.156 171.804 85.156 218.628 C 85.156 269.926,85.028 271.725,80.429 284.753 C 77.527 292.976,77.479 295.472,80.183 297.600 C 84.556 301.039,88.759 298.967,91.167 292.187 C 91.930 290.039,92.778 288.281,93.050 288.281 C 94.966 288.281,96.993 310.971,96.370 325.439 L 95.864 337.206 98.037 338.915 C 109.821 348.185,113.112 319.012,104.605 280.690 C 99.516 257.767,97.667 236.050,97.661 199.160 L 97.656 171.366 95.848 169.667 C 93.369 167.338,89.526 167.434,87.074 169.886 M304.116 169.727 C 302.529 171.443,302.481 172.359,302.109 208.594 C 301.682 250.275,301.400 253.410,295.747 279.297 C 290.191 304.745,290.402 307.813,297.713 307.813 C 302.183 307.813,303.523 306.052,304.618 298.738 C 305.126 295.350,305.798 291.374,306.111 289.902 L 306.681 287.227 308.908 292.467 C 311.888 299.478,315.355 301.109,319.817 297.600 C 322.561 295.440,322.466 293.306,319.182 283.463 C 314.967 270.830,314.856 269.167,314.850 218.519 L 314.844 171.804 312.926 169.886 C 310.411 167.371,306.361 167.298,304.116 169.727 M255.123 204.260 C 237.260 210.801,243.183 237.107,262.017 234.876 C 276.694 233.138,280.962 212.832,268.153 205.676 C 264.140 203.434,258.927 202.867,255.123 204.260 M261.853 216.918 C 263.852 218.727,263.631 220.968,261.351 222.007 C 257.810 223.620,255.040 218.425,258.398 216.469 C 260.199 215.420,260.198 215.420,261.853 216.918 M178.337 222.730 C 159.593 232.008,167.910 261.293,188.679 259.149 C 204.096 257.558,211.427 240.225,201.943 227.791 C 197.165 221.526,185.725 219.073,178.337 222.730 M191.249 235.178 C 194.824 238.508,194.135 243.549,189.770 245.999 C 185.745 248.259,180.469 244.885,180.469 240.052 C 180.469 234.581,187.296 231.494,191.249 235.178 M228.221 267.189 C 213.565 270.649,210.948 291.770,224.253 299.213 C 232.654 303.911,243.392 300.753,247.817 292.282 C 254.926 278.673,243.196 263.653,228.221 267.189 M235.442 280.525 C 240.385 284.414,235.016 291.457,229.861 287.846 C 227.005 285.846,227.863 280.659,231.250 279.448 C 233.118 278.781,233.275 278.822,235.442 280.525 M137.195 301.710 C 133.047 302.858,126.967 308.857,125.864 312.891 C 121.232 329.820,140.130 342.861,153.421 331.906 C 168.027 319.866,155.541 296.631,137.195 301.710 M296.373 309.352 C 293.805 310.414,292.188 313.297,292.188 316.814 C 292.188 321.696,287.953 323.121,283.933 319.591 C 276.648 313.195,268.664 321.179,275.059 328.464 C 278.639 332.541,277.168 336.719,272.152 336.719 C 267.541 336.719,264.531 339.341,264.531 343.359 C 264.531 347.328,266.889 349.219,271.838 349.219 C 277.179 349.219,278.952 354.126,275.060 358.141 C 271.047 362.282,272.344 367.858,277.630 369.184 C 279.745 369.715,283.234 368.181,285.430 365.754 C 288.057 362.851,291.902 365.507,292.388 370.560 C 293.307 380.122,304.688 379.775,304.688 370.185 C 304.688 364.887,309.430 362.916,313.173 366.658 C 316.450 369.936,320.487 370.003,323.220 366.826 C 325.627 364.027,325.183 360.767,321.953 357.533 C 318.340 353.915,320.493 349.219,325.764 349.219 C 335.264 349.219,335.510 337.830,326.029 336.919 C 320.976 336.434,318.320 332.588,321.223 329.961 C 326.910 324.815,325.235 317.188,318.418 317.188 C 316.881 317.188,315.255 317.997,313.630 319.571 C 309.673 323.407,304.688 321.584,304.688 316.303 C 304.688 310.720,300.841 307.504,296.373 309.352 M145.158 314.648 C 150.250 319.051,144.843 325.975,139.558 321.818 C 136.988 319.796,136.942 317.674,139.418 315.199 C 141.689 312.927,143.020 312.800,145.158 314.648 M196.955 323.358 C 196.139 324.174,195.235 325.918,194.946 327.235 C 194.183 330.706,190.756 332.316,188.323 330.345 C 182.445 325.586,174.903 333.192,179.590 339.152 C 181.820 341.988,180.278 348.184,177.173 348.866 C 170.976 350.227,171.441 360.938,177.697 360.938 C 180.325 360.938,181.844 368.407,179.684 370.706 C 174.704 376.007,181.382 383.631,187.726 379.888 C 191.297 377.781,194.300 378.834,194.975 382.428 C 196.295 389.465,207.031 389.718,207.031 382.711 C 207.031 379.476,211.138 377.357,213.415 379.418 C 219.154 384.611,227.942 376.330,222.659 370.706 C 220.493 368.400,222.020 360.938,224.658 360.938 C 230.828 360.938,231.241 350.199,225.123 348.855 C 221.956 348.160,220.450 342.080,222.727 339.185 C 227.448 333.184,218.815 324.786,213.716 330.420 C 211.671 332.680,207.031 330.444,207.031 327.199 C 207.031 322.504,200.354 319.958,196.955 323.358 M304.215 333.492 C 312.072 337.916,311.814 349.091,303.761 353.199 C 296.044 357.136,287.502 351.760,287.508 342.969 C 287.514 334.087,296.361 329.069,304.215 333.492 M205.494 342.591 C 213.021 346.483,212.025 364.399,204.099 367.711 C 197.017 370.670,192.188 365.513,192.188 354.991 C 192.188 343.473,197.545 338.481,205.494 342.591 M96.299 354.319 C 94.168 355.812,94.033 356.667,92.558 378.097 C 91.153 398.520,91.350 399.390,97.496 399.848 C 103.736 400.312,103.834 399.975,105.590 371.959 L 106.539 356.809 104.398 354.967 C 101.936 352.850,98.760 352.596,96.299 354.319 M297.230 380.043 C 294.350 382.922,294.995 396.692,298.117 398.977 C 304.068 403.333,308.920 398.331,308.135 388.651 C 307.324 378.662,302.455 374.818,297.230 380.043 " stroke="none" fill="currentColor" fill-rule="evenodd"></path></g></svg>