<svg id="svg" version="1.1" xmlns="http://www.w3.org/2000/svg" xmlns:xlink="http://www.w3.org/1999/xlink" width="400" height="400" viewBox="0, 0, 400,400"><g id="svgg"><path id="path0" d="M187.674 12.403 C 172.171 16.337,171.739 16.706,108.874 79.795 C 53.062 135.806,52.022 137.090,49.157 153.538 C 45.753 173.089,51.998 189.518,69.233 206.349 C 84.489 221.248,93.724 225.418,111.328 225.354 C 134.714 225.269,158.102 209.594,148.769 200.260 C 145.823 197.315,141.806 198.034,136.925 202.382 C 123.945 213.944,104.198 215.252,89.304 205.537 C 63.832 188.920,55.214 162.388,68.503 141.495 C 73.571 133.527,112.928 95.207,115.469 95.767 C 129.378 98.834,141.837 106.701,158.265 122.789 C 168.869 133.174,171.320 134.220,175.426 130.114 C 179.575 125.964,177.923 122.567,166.274 111.304 C 153.028 98.496,141.266 90.190,130.377 85.954 L 125.052 83.882 151.784 57.331 C 181.171 28.142,181.847 27.623,193.647 25.199 C 210.331 21.773,230.578 32.704,243.096 51.897 C 252.653 66.550,251.323 86.415,239.919 99.345 C 231.930 108.404,239.256 118.537,248.158 110.742 C 264.330 96.582,267.854 66.066,255.668 45.711 C 240.670 20.658,211.486 6.362,187.674 12.403 M110.547 114.811 C 108.067 115.841,86.534 138.246,83.683 142.763 C 74.698 156.997,74.405 172.656,83.124 172.656 C 87.749 172.656,89.470 170.592,90.508 163.797 C 92.017 153.923,94.686 149.723,108.191 135.975 C 120.712 123.228,121.503 121.980,119.827 117.613 C 118.800 114.935,113.846 113.440,110.547 114.811 M238.672 116.145 C 193.790 119.838,161.566 134.073,155.086 153.069 C 153.006 159.168,153.388 200.104,155.580 206.025 C 170.153 245.384,295.939 255.681,344.180 221.465 C 350.060 217.294,353.991 212.992,356.809 207.645 L 358.984 203.516 358.984 178.906 L 358.984 154.297 356.745 150.042 C 344.559 126.887,291.887 111.766,238.672 116.145 M269.088 129.420 L 277.481 129.933 247.626 159.796 L 217.771 189.659 212.987 188.561 C 189.440 183.155,172.053 174.023,168.254 165.064 C 159.916 145.406,214.576 126.084,269.088 129.420 M306.825 135.131 C 333.908 142.253,349.019 153.834,344.991 164.381 C 338.328 181.828,288.907 195.671,244.227 192.606 L 235.720 192.022 265.317 162.417 C 284.645 143.085,295.458 132.814,296.481 132.817 C 297.342 132.820,301.997 133.861,306.825 135.131 M180.751 192.491 C 224.574 213.204,308.430 210.144,342.773 186.578 L 346.094 184.300 346.077 191.173 C 346.049 202.135,342.930 206.772,331.018 213.558 C 290.965 236.375,199.144 232.476,172.874 206.843 C 168.078 202.164,167.188 199.765,167.188 191.536 L 167.188 184.481 171.181 187.168 C 173.377 188.646,177.684 191.041,180.751 192.491 M341.016 239.755 C 337.011 240.819,260.319 280.935,257.620 283.377 C 256.861 284.064,256.148 284.482,256.034 284.305 C 255.921 284.129,255.046 282.308,254.090 280.260 C 251.648 275.030,246.938 270.214,241.636 267.528 L 237.109 265.234 194.531 264.785 L 151.953 264.336 142.188 261.512 C 111.906 252.755,88.595 257.169,71.094 274.973 C 67.012 279.126,55.586 289.828,45.703 298.755 C 24.569 317.845,25.000 317.385,25.000 320.825 C 25.000 326.575,31.591 329.332,36.418 325.602 C 41.444 321.717,72.737 293.029,79.297 286.292 C 94.515 270.663,112.416 266.924,137.137 274.210 C 149.393 277.823,153.299 278.093,193.580 278.110 C 225.733 278.123,231.725 278.302,234.176 279.327 C 244.697 283.722,246.041 297.438,236.566 303.710 L 233.319 305.859 194.219 306.083 C 149.505 306.338,151.563 306.006,151.562 312.970 C 151.562 319.877,149.754 319.617,196.055 319.362 L 236.364 319.141 241.578 316.573 C 249.982 312.435,254.962 305.446,256.625 295.457 C 257.147 292.322,257.281 292.171,258.537 293.308 C 261.629 296.107,263.836 295.167,304.304 273.828 C 339.592 255.220,343.939 253.125,347.251 253.125 C 359.594 253.125,366.008 267.310,357.531 275.861 C 355.244 278.167,285.131 315.712,241.797 337.834 C 217.300 350.340,223.553 349.433,158.203 349.967 L 104.297 350.408 99.122 352.475 C 90.344 355.983,86.830 358.644,69.727 374.737 C 64.011 380.115,63.185 383.569,66.761 387.145 C 71.110 391.493,72.901 390.561,89.870 375.116 C 94.521 370.883,98.862 367.728,102.230 366.132 L 107.422 363.672 161.719 363.227 C 220.536 362.744,220.066 362.778,232.114 358.127 C 242.520 354.110,363.840 289.286,367.221 285.938 C 386.624 266.717,367.354 232.756,341.016 239.755 " stroke="none" fill="currentColor" fill-rule="evenodd"></path></g></svg>