<svg id="svg" xmlns="http://www.w3.org/2000/svg" xmlns:xlink="http://www.w3.org/1999/xlink" width="400" height="400" viewBox="0, 0, 400,400"><g id="svgg"><path id="path0" d="M180.078 5.907 C 97.057 17.159,31.537 77.116,13.654 158.203 C 11.970 165.838,11.119 168.158,9.068 170.703 C -2.884 185.534,-3.349 206.380,7.955 220.579 C 9.945 223.079,10.587 225.003,11.797 232.095 C 33.988 362.157,174.551 433.713,292.360 374.920 C 318.003 362.124,324.289 355.419,317.248 348.377 C 313.491 344.621,310.510 345.138,300.781 351.235 C 211.465 407.211,94.871 375.922,45.809 282.813 C 38.953 269.801,31.485 249.160,29.380 237.407 L 28.874 234.579 32.210 235.224 C 34.045 235.579,37.520 235.885,39.932 235.903 C 44.222 235.937,45.198 236.439,84.957 259.065 L 125.596 282.193 121.962 286.995 C 109.020 304.095,107.582 317.239,118.661 317.163 C 123.440 317.130,124.216 316.409,128.559 307.975 C 159.260 248.353,250.115 248.353,280.816 307.975 C 285.159 316.409,285.935 317.130,290.714 317.163 C 311.058 317.303,288.349 278.561,257.372 260.283 C 242.230 251.348,227.974 247.620,206.900 247.085 L 191.535 246.695 133.553 213.664 L 75.570 180.633 73.173 176.449 C 65.977 163.890,51.601 156.331,36.567 157.201 L 30.504 157.552 30.972 155.534 C 50.850 69.749,141.340 9.321,230.078 22.574 C 357.531 41.609,423.939 182.375,357.717 293.129 C 351.500 303.526,351.094 306.136,355.072 310.114 C 361.897 316.940,368.503 310.520,380.810 285.102 C 433.111 177.073,375.667 46.658,260.780 12.599 C 236.135 5.292,204.172 2.642,180.078 5.907 M139.036 74.047 C 137.564 74.786,135.961 76.270,135.474 77.344 C 130.748 87.761,127.472 91.365,119.195 95.248 C 112.426 98.424,107.568 99.344,99.028 99.069 C 86.927 98.680,81.384 108.804,90.930 113.860 C 105.952 121.817,139.418 108.099,147.843 90.531 C 153.431 78.880,148.350 69.371,139.036 74.047 M264.228 73.546 C 255.424 76.057,257.778 89.002,269.124 100.464 C 286.777 118.299,325.445 121.752,322.343 105.216 C 321.353 99.936,319.198 98.952,308.395 98.842 C 291.518 98.669,279.347 91.804,275.157 80.093 C 273.162 74.516,269.183 72.133,264.228 73.546 M127.158 125.366 C 104.621 133.918,103.026 165.961,124.609 176.581 C 134.171 181.286,148.583 178.800,156.283 171.119 C 169.423 158.010,165.532 134.738,148.828 126.529 C 144.023 124.168,132.015 123.523,127.158 125.366 M263.096 125.366 C 240.540 133.925,238.946 165.953,260.547 176.581 C 270.108 181.286,284.521 178.800,292.221 171.119 C 302.715 160.650,302.715 142.491,292.221 131.998 C 285.256 125.033,271.955 122.004,263.096 125.366 M142.417 141.944 C 152.067 146.807,147.717 162.490,136.719 162.490 C 123.705 162.490,121.638 144.315,134.233 140.629 C 136.623 139.930,139.262 140.354,142.417 141.944 M278.245 141.888 C 283.134 144.348,285.207 152.616,282.111 157.311 C 275.935 166.679,261.729 162.672,261.729 151.563 C 261.729 142.824,270.221 137.849,278.245 141.888 M47.177 175.034 C 52.547 177.043,57.078 181.402,60.175 187.537 C 61.732 190.621,63.428 192.770,64.971 193.615 C 70.560 196.674,70.570 196.705,67.876 202.085 C 65.708 206.414,65.553 207.180,66.354 209.608 C 69.436 218.945,80.796 216.640,84.604 205.906 C 84.828 205.275,93.981 209.819,96.606 211.865 C 97.262 212.376,96.862 213.821,95.140 217.160 C 92.366 222.538,92.550 225.944,95.778 228.977 C 100.204 233.135,106.719 230.905,110.248 224.023 C 112.107 220.398,111.859 220.386,119.007 224.460 L 124.914 227.826 122.613 231.854 C 118.768 238.587,120.222 244.356,126.172 245.979 C 131.045 247.309,133.749 245.667,137.755 238.949 L 139.453 236.101 153.258 244.029 C 160.850 248.390,167.278 252.173,167.541 252.437 C 167.804 252.700,165.919 253.701,163.352 254.661 C 157.784 256.743,148.152 262.251,142.154 266.782 L 137.824 270.053 93.326 244.644 L 48.828 219.235 41.016 219.137 C 31.841 219.022,27.334 217.226,22.334 211.691 C 6.305 193.950,24.799 166.661,47.177 175.034 M33.310 190.341 C 28.195 195.455,31.779 203.906,39.063 203.906 C 44.244 203.906,46.875 201.275,46.875 196.094 C 46.875 190.913,44.244 188.281,39.063 188.281 C 36.114 188.281,34.954 188.696,33.310 190.341 M332.752 325.721 C 328.241 330.232,330.497 338.087,336.695 339.448 C 342.137 340.643,347.674 335.105,346.479 329.664 C 345.118 323.466,337.264 321.210,332.752 325.721 " stroke="none" fill="currentColor" fill-rule="evenodd"></path></g></svg>