<svg id="svg" version="1.1" xmlns="http://www.w3.org/2000/svg" xmlns:xlink="http://www.w3.org/1999/xlink" width="400" height="164.07185628742516" viewBox="0, 0, 400,164.07185628742516"><g id="svgg"><path id="path0" d="M292.333 0.108 C 292.333 0.167,292.652 0.564,293.042 0.990 C 297.340 5.691,301.076 11.300,302.650 15.417 C 302.860 15.967,303.095 16.567,303.171 16.750 C 303.467 17.461,304.010 19.049,304.159 19.635 C 304.244 19.973,304.387 20.512,304.476 20.833 C 305.038 22.861,305.190 23.473,305.514 25.023 C 305.713 25.973,305.907 26.938,305.944 27.167 C 305.981 27.396,306.080 27.958,306.165 28.417 C 306.455 29.992,306.666 31.253,306.919 32.917 C 307.058 33.833,307.241 34.996,307.326 35.500 C 307.410 36.004,307.565 36.979,307.670 37.667 C 307.776 38.354,307.927 39.254,308.007 39.667 C 308.086 40.079,308.271 41.092,308.416 41.917 C 308.562 42.742,308.749 43.679,308.832 44.000 C 308.915 44.321,309.219 45.521,309.507 46.667 C 310.725 51.513,312.171 54.971,314.422 58.417 C 316.070 60.940,320.349 65.545,323.750 68.456 C 324.300 68.927,324.975 69.510,325.250 69.751 C 327.749 71.949,333.844 76.213,336.990 77.965 C 337.408 78.198,338.012 78.538,338.333 78.721 C 340.235 79.804,344.181 81.670,346.500 82.583 C 346.912 82.746,347.498 82.987,347.802 83.119 C 348.105 83.251,349.355 83.688,350.579 84.091 C 361.081 87.547,371.611 88.261,379.917 86.080 C 382.302 85.453,383.238 85.173,384.083 84.832 C 384.267 84.758,384.924 84.503,385.544 84.265 C 388.732 83.043,393.676 80.536,396.967 78.472 C 397.820 77.937,398.558 77.500,398.607 77.500 C 398.656 77.500,398.988 77.294,399.345 77.042 L 399.993 76.583 399.996 38.292 L 400.000 0.000 346.167 0.000 C 316.558 0.000,292.333 0.048,292.333 0.108 M365.712 32.652 C 367.390 33.290,367.706 35.794,366.206 36.560 C 364.700 37.330,363.150 36.797,362.671 35.346 C 362.094 33.599,363.928 31.974,365.712 32.652 M366.263 42.514 C 367.190 43.076,367.458 44.437,366.840 45.450 C 365.441 47.745,361.713 45.925,362.746 43.451 C 363.306 42.112,364.901 41.687,366.263 42.514 " stroke="none" fill="var(--secondary-color)" fill-rule="evenodd"></path><path id="path1" d="M0.000 82.000 L 0.000 164.000 200.000 164.000 L 400.000 164.000 400.000 120.333 C 400.000 96.317,399.957 76.667,399.906 76.667 C 399.854 76.667,399.565 76.854,399.265 77.083 C 398.964 77.313,398.673 77.500,398.618 77.500 C 398.563 77.500,397.820 77.937,396.967 78.472 C 393.676 80.536,388.732 83.043,385.544 84.265 C 384.924 84.503,384.267 84.758,384.083 84.832 C 383.238 85.173,382.302 85.453,379.917 86.080 C 371.611 88.261,361.081 87.547,350.579 84.091 C 349.355 83.688,348.105 83.251,347.802 83.119 C 347.498 82.987,346.912 82.746,346.500 82.583 C 344.078 81.630,340.310 79.838,338.083 78.582 C 337.625 78.323,337.018 77.982,336.735 77.823 C 333.790 76.176,327.642 71.855,325.250 69.751 C 324.975 69.510,324.300 68.927,323.750 68.456 C 320.349 65.545,316.070 60.940,314.422 58.417 C 312.171 54.971,310.725 51.513,309.507 46.667 C 309.219 45.521,308.915 44.321,308.832 44.000 C 308.749 43.679,308.562 42.742,308.416 41.917 C 308.271 41.092,308.086 40.079,308.007 39.667 C 307.927 39.254,307.776 38.354,307.670 37.667 C 307.565 36.979,307.410 36.004,307.326 35.500 C 307.241 34.996,307.058 33.833,306.919 32.917 C 306.666 31.253,306.455 29.992,306.165 28.417 C 306.080 27.958,305.981 27.396,305.944 27.167 C 305.907 26.938,305.713 25.973,305.514 25.023 C 305.190 23.473,305.038 22.861,304.476 20.833 C 304.387 20.512,304.244 19.973,304.159 19.635 C 304.010 19.049,303.467 17.461,303.171 16.750 C 303.095 16.567,302.860 15.967,302.650 15.417 C 301.315 11.926,297.189 5.468,294.449 2.582 C 294.340 2.466,293.800 1.843,293.250 1.196 L 292.250 0.021 146.125 0.010 L 0.000 0.000 0.000 82.000 " stroke="none" fill="var(--primary-color)" fill-rule="evenodd"></path><path id="path2" d="M363.903 32.661 C 362.571 33.201,362.130 35.312,363.157 36.241 C 364.290 37.267,366.286 37.053,366.914 35.839 C 367.899 33.933,365.921 31.845,363.903 32.661 M364.336 42.121 C 362.872 42.400,362.075 44.156,362.875 45.338 C 363.882 46.825,365.966 46.884,366.840 45.450 C 367.884 43.739,366.375 41.733,364.336 42.121 " stroke="none" fill="#fcfcfc" fill-rule="evenodd"></path></g></svg>